HIERARCHY
ROOT Hips
{
	OFFSET 0.00000 0.00000 0.00000
	CHANNELS 6 Xposition Yposition Zposition Yrotation Zrotation Xrotation 
	JOINT Lumbar
	{
		OFFSET 0 0 0
		CHANNELS 3 Zrotation Xrotation Yrotation
		JOINT Neck
		{
			OFFSET 0.00 0.2701 0.00
			CHANNELS 3 Zrotation Xrotation Yrotation
			End Site
			{
				OFFSET 0.00 0.1379 0.00
			}
		}
		JOINT RightShoulder
		{
			OFFSET 0.0119 0.2289 0.1181
			CHANNELS 3 Zrotation Xrotation Yrotation
			JOINT RightElbow
			{
				OFFSET 0.00 -0.1475 0.00
				CHANNELS 2 Zrotation Yrotation
				JOINT RightWrist
				{
					OFFSET 0.00 -0.1605 0.00
					CHANNELS 2 Zrotation Xrotation
					End Site
					{
						OFFSET 0.0040 -0.1068 0.0006
					}
				}
			}
		}
		JOINT LeftShoulder
		{
			OFFSET 0.0119 0.2289 -0.1181
			CHANNELS 3 Zrotation Xrotation Yrotation
			JOINT LeftElbow
			{
				OFFSET 0.00 -0.1475 0.00
				CHANNELS 2 Zrotation Yrotation
				JOINT LeftWrist
				{
					OFFSET 0.00 -0.1605 0.00
					CHANNELS 2 Zrotation Xrotation
					End Site
					{
						OFFSET 0.0040 -0.1068 -0.0006
					}
				}
			}
		}
	}
	JOINT RightHip
	{
		OFFSET 0.0316 -0.0424 0.0458
		CHANNELS 3 Zrotation Xrotation Yrotation
		JOINT RightKnee
		{
			OFFSET 0.00 -0.2438 0.00
			CHANNELS 1 Zrotation
			JOINT RightAnkle
			{
				OFFSET 0.00 -0.2449 0.00
				CHANNELS 3 Zrotation Xrotation Yrotation
				End Site
				{
					OFFSET 0.1237 -0.0542 0.0051
				}
			}
		}
	}
	JOINT LeftHip
	{
		OFFSET 0.0316 -0.0424 -0.0458
		CHANNELS 3 Zrotation Xrotation Yrotation
		JOINT LeftKnee
		{
			OFFSET 0.00 -0.2438 0.00
			CHANNELS 1 Zrotation
			JOINT LeftAnkle
			{
				OFFSET 0.00 -0.2449 0.00
				CHANNELS 3 Zrotation Xrotation Yrotation
				End Site
				{
					OFFSET 0.1237 -0.0542 -0.0051
				}
			}
		}
	}
}
MOTION
Frames: 22
Frame Time: 0.02
-0.03454 -0.01225 0.00984 18.03814 -21.67973 -4.67966 36.58957 3.17316 5.26555 -9.09765 -2.77656 -0.82823 40.41518 -61.98204 40.34813 48.28805 84.8345 6.60125 -2.14689 -1.05745 57.97373 -3.90111 55.76091 -87.25124 11.37822 1.61543 38.17821 0.15226 -11.84852 -24.86535 -6.07112 -3.24106 -2.29855 53.51966 8.93699 2.27855 -42.83131 -7.15364 2.44251 1.89808
-0.03386 -0.01201 0.00952 17.92554 -21.56745 -4.58143 36.27615 3.07147 5.54275 -9.03869 -3.14204 -0.82832 46.09739 -62.30563 45.0024 47.12114 85.33602 6.62021 -2.22845 0.84684 58.70211 -5.54096 55.05905 -86.89506 11.38811 1.81261 37.95891 0.19788 -11.24388 -24.83307 -6.06486 -3.29075 -2.32412 54.02249 9.07391 1.57095 -42.83329 -7.2092 2.49156 1.92838
-0.03307 -0.01162 0.00888 17.81647 -21.52893 -4.43846 36.03216 2.91951 5.8339 -8.95649 -3.53161 -0.8284 52.264 -62.24561 49.85652 46.09824 85.83851 6.85662 -2.40739 3.10921 59.36138 -7.35346 54.55883 -86.70223 11.33183 2.0231 37.81756 0.22483 -10.37868 -24.79818 -6.08449 -3.37509 -2.36889 54.45525 9.06018 0.548 -42.23073 -7.2898 2.60214 1.99427
-0.03231 -0.01131 0.00835 17.70699 -21.46326 -4.32027 35.7626 2.79174 6.11302 -8.8838 -3.91109 -0.82849 58.14669 -62.30525 54.48879 44.98814 86.32366 7.0199 -2.54334 5.24932 60.03961 -9.1183 53.96531 -86.42198 11.3118 2.23789 37.64366 0.25797 -9.6476 -24.76575 -6.09136 -3.44203 -2.40407 54.91959 9.13203 -0.29272 -41.8801 -7.35697 2.67646 2.0392
-0.03163 -0.01097 0.00795 17.59234 -21.36901 -4.1841 35.46683 2.65898 6.41767 -8.81582 -4.28577 -0.82858 64.33591 -62.59269 59.69998 43.96843 86.88388 7.07597 -2.67253 7.23927 60.77764 -10.77092 53.38418 -86.1865 11.26476 2.41483 37.45504 0.30203 -8.84884 -24.72746 -6.10192 -3.51601 -2.44292 55.38954 9.13943 -1.28854 -41.62959 -7.43209 2.78363 2.10303
-0.03076 -0.01065 0.0072 17.48891 -21.35184 -4.07494 35.24198 2.52447 6.67186 -8.73219 -4.67618 -0.82865 69.98452 -62.31666 63.7459 42.79902 87.28596 7.40501 -2.83919 9.6167 61.37006 -12.68872 52.82661 -85.89526 11.25961 2.6697 37.3154 0.31855 -8.1292 -24.70061 -6.11119 -3.5836 -2.47872 55.82771 9.24028 -2.04201 -41.0297 -7.49694 2.83826 2.1367
-0.02943 -0.01042 0.00563 17.42095 -21.5379 -4.04514 35.2032 2.39647 6.78342 -8.61342 -5.10983 -0.82867 74.05518 -60.56652 64.48674 41.13478 87.25835 8.45321 -3.0892 13.00555 61.59918 -15.32981 52.24135 -85.4801 11.3741 3.15951 37.30763 0.26168 -7.69845 -24.71041 -6.10991 -3.62433 -2.50095 56.21724 9.66066 -2.02003 -39.56092 -7.52653 2.72741 2.07529
-0.02791 -0.01022 0.0037 17.36324 -21.79824 -4.04496 35.2326 2.26835 6.84346 -8.4791 -5.55773 -0.82867 77.55301 -58.26529 64.0506 39.32379 87.06993 9.76513 -3.37314 16.76361 61.67881 -18.22319 51.67975 -84.99417 11.53518 3.72267 37.34468 0.17763 -7.35578 -24.73122 -6.10664 -3.65752 -2.5195 56.57322 10.17473 -1.74909 -37.77017 -7.54515 2.56285 1.98305
-0.02646 -0.01 0.00189 17.29739 -22.01879 -4.0351 35.22588 2.14099 6.92683 -8.35053 -5.99555 -0.82868 81.28751 -56.22428 64.1749 37.60903 86.94978 10.94428 -3.63932 20.33152 61.81241 -20.97749 51.13431 -84.49517 11.68308 4.2364 37.35074 0.10743 -6.96816 -24.74414 -6.10473 -3.69466 -2.54002 56.92923 10.62919 -1.61281 -36.15932 -7.56939 2.4266 1.90708
-0.02508 -0.00979 0.00025 17.24636 -22.26536 -4.00796 35.24195 2.00957 7.01115 -8.22738 -6.44917 -0.82868 85.14329 -54.12774 64.20049 35.77192 86.84944 12.18588 -3.91863 24.00829 62.00471 -23.84245 50.48194 -84.18593 11.7954 4.81785 37.40188 0.03142 -6.59042 -24.76883 -6.10169 -3.73092 -2.56001 57.34523 11.1511 -1.39879 -34.38453 -7.59184 2.27585 1.8227
-0.02352 -0.00958 -0.00182 17.16686 -22.47693 -4.02417 35.22746 1.88639 7.08098 -8.08871 -6.87323 -0.82869 88.59914 -52.02207 64.14735 34.15634 86.67039 13.35681 -4.17755 27.53923 62.03755 -26.53296 50.05589 -83.47081 11.99314 5.27643 37.3718 -0.04012 -6.21865 -24.77206 -6.10033 -3.76662 -2.5799 57.63153 11.55585 -1.2807 -32.88415 -7.61505 2.14194 1.74818
-0.02151 -0.00938 -0.00491 17.00599 -22.55195 -4.15532 35.09764 1.79348 7.12411 -7.91833 -7.20987 -0.8287 91.12722 -50.01866 64.18002 33.15862 86.30441 14.27082 -4.3694 30.59119 61.68826 -28.69123 50.24257 -81.58272 12.42073 5.3694 37.08067 -0.08076 -5.82469 -24.71018 -6.10301 -3.80382 -2.6011 57.54764 11.62191 -1.51065 -32.20942 -7.64311 2.06588 1.70728
-0.01933 -0.00918 -0.00842 16.81604 -22.59281 -4.32892 34.93688 1.70776 7.15432 -7.73161 -7.51664 -0.8287 93.26274 -48.02848 64.17002 32.39397 85.86503 15.1032 -4.53901 33.4785 61.17971 -30.66178 50.65655 -79.30171 12.93178 5.33767 36.71085 -0.11823 -5.43862 -24.62724 -6.10756 -3.84023 -2.62206 57.33824 11.56621 -1.83976 -31.82683 -7.6721 2.00867 1.67741
-0.01724 -0.00897 -0.01176 16.63969 -22.66331 -4.48163 34.79953 1.61405 7.18981 -7.54773 -7.83844 -0.82871 95.55215 -46.03893 64.16859 31.54105 85.46688 15.96982 -4.72057 36.43095 60.7305 -32.71055 50.96936 -77.24429 13.40172 5.36852 36.39344 -0.16471 -5.06098 -24.55567 -6.11185 -3.87619 -2.64264 57.20027 11.56179 -2.10761 -31.32094 -7.70061 1.94369 1.6431
-0.01512 -0.00881 -0.01501 16.46251 -22.67719 -4.64181 34.62581 1.54008 7.22565 -7.38273 -8.15442 -0.82872 97.92739 -44.00156 64.17236 30.60755 85.03563 16.8571 -4.89773 39.44013 60.33201 -34.79995 51.27328 -74.99078 13.88761 5.3771 36.00681 -0.17966 -4.63384 -24.47564 -6.11354 -3.91575 -2.66536 57.00142 11.57727 -2.43633 -30.76432 -7.72936 1.87349 1.60537
-0.01301 -0.00854 -0.01855 16.27948 -22.79952 -4.79648 34.51872 1.42692 7.25884 -7.17463 -8.47549 -0.82872 100.03551 -42.07453 64.16991 29.90042 84.65077 17.67942 -5.07568 42.28378 59.79084 -36.7546 51.65046 -73.05786 14.35833 5.40132 35.74578 -0.25986 -4.31265 -24.40962 -6.12116 -3.94718 -2.68336 56.89865 11.5217 -2.66379 -30.38594 -7.75749 1.81935 1.57771
-0.01097 -0.00793 -0.02281 16.09203 -23.2326 -4.92283 34.61034 1.20212 7.28343 -6.85236 -8.81572 -0.82873 101.52459 -40.44935 64.17071 29.75167 84.47649 18.33241 -5.28439 44.73578 58.90529 -38.39947 52.16538 -72.0661 14.77673 5.49973 35.84455 -0.51499 -4.26419 -24.37454 -6.14437 -3.9608 -2.69062 57.10383 11.29483 -2.59937 -30.4401 -7.78784 1.80497 1.57571
-0.00895 -0.0072 -0.02734 15.89893 -23.77502 -5.04269 34.76834 0.93806 7.3066 -6.48726 -9.16241 -0.82873 102.75657 -38.93759 64.17074 29.82559 84.34152 18.92312 -5.49083 47.01925 57.88037 -39.91007 52.74833 -71.41747 15.17501 5.61736 36.07335 -0.83677 -4.32483 -24.35669 -6.1736 -3.96544 -2.69271 57.40796 11.00107 -2.42915 -30.66302 -7.81685 1.80637 1.58351
-0.00693 -0.00652 -0.03175 15.7051 -24.26519 -5.16694 34.89093 0.69291 7.33395 -6.14116 -9.50755 -0.82874 104.09494 -37.37635 64.17053 29.80417 84.14537 19.5478 -5.68214 49.36278 56.9131 -41.47109 53.30507 -70.63965 15.57557 5.72593 36.24654 -1.13201 -4.34705 -24.33929 -6.20021 -3.97136 -2.69574 57.65918 10.74076 -2.30005 -30.80263 -7.84374 1.80079 1.58656
-0.00486 -0.00587 -0.03618 15.52352 -24.76529 -5.2859 35.03479 0.443 7.34707 -5.79611 -9.84597 -0.82875 105.46528 -35.80613 64.17069 29.76456 84.12396 20.14681 -5.93824 51.77482 55.9644 -43.07371 53.84733 -69.73894 16.00756 5.83301 36.40243 -1.41183 -4.32316 -24.286 -6.22614 -3.98919 -2.70478 57.93965 10.46357 -2.20144 -30.98018 -7.88198 1.79501 1.59117
-0.00291 -0.00513 -0.04062 15.31628 -25.27079 -5.41465 35.15028 0.19423 7.3882 -5.43931 -10.20011 -0.82875 106.71077 -34.28188 64.17048 29.8146 83.75577 20.78438 -6.06249 54.00094 54.94577 -44.55614 54.43614 -69.17609 16.36881 5.94756 36.6261 -1.73901 -4.42023 -24.3121 -6.25521 -3.97996 -2.7 58.1842 10.207 -2.01569 -31.11496 -7.89649 1.7932 1.59479
-0.00128 -0.00421 -0.04503 15.03253 -25.76723 -5.56438 35.17327 -0.04747 7.52002 -5.05728 -10.5977 -0.82876 107.69598 -32.85464 64.17105 30.04268 82.36246 21.55335 -5.79344 55.79916 53.77148 -45.77487 55.10912 -69.50584 16.53381 6.09427 37.00676 -2.186 -4.83197 -24.55097 -6.28892 -3.89931 -2.65886 58.30713 10.0262 -1.59119 -31.09007 -7.84379 1.798 1.59251
